<svg width="64" height="64" viewBox="0 0 64 64" fill="none" xmlns="http://www.w3.org/2000/svg">
  <circle cx="32" cy="32" r="32" fill="#0045C2"/>
  <path d="M42 38H36.56C36.784 39.536 36.968 40.56 37.112 41.072H42V45H36.344C34.904 47.976 31.912 50 28.5 50C23.2533 50 19 45.9706 19 41H15V37H19C19 35.84 19.3467 33.72 19.3467 33.72H15V29.72H19.7867C20.6667 25.864 24.2267 23 28.5 23C31.54 23 34.2333 24.64 35.6533 27.2H41.5V31.2H36.56C36.336 32.736 36.152 33.76 36.008 34.272H41.5V38H42ZM28.5 27C25.6 27 23.16 29.088 23.16 31.2H32.4267C32.1333 29.728 30.64 27 28.5 27ZM28.5 46C30.64 46 32.1333 43.272 32.4267 41.8H23.16C23.16 43.912 25.6 46 28.5 46Z" fill="white"/>
</svg>
