<svg viewBox="0 0 2000 2000" fill="none" xmlns="http://www.w3.org/2000/svg">
<path d="M1000 2000C1552.28 2000 2000 1552.28 2000 1000C2000 447.715 1552.28 0 1000 0C447.715 0 0 447.715 0 1000C0 1552.28 447.715 2000 1000 2000Z" fill="#0045C2"/>
<path d="M1105.7 1553.8C1033.4 1526.4 991.6 1483.4 947 1414H1169.5V1298H904.5C893 1251.4 887 1198.8 887 1142H1182V1026H894.4C907.8 961 931.3 903.9 962.7 858H1196.2V742H998.2C1032.5 706 1076.6 673.5 1137.9 646.2C1198.2 619.4 1276.5 606 1373 606V480C1236.9 480 1121.2 505.7 1026 557.1C917.4 615.6 837.2 696.1 785.4 798.5H627V914.5H756C750 954 747 997 747 1042H627V1158H753.3C760.3 1205.8 769.7 1253.9 780.9 1298H627V1414H810.1C855.9 1515.2 929.5 1599.3 1030.9 1666.2C1113 1720.5 1227 1747.6 1373 1747.6V1621.6C1268.4 1621.6 1179.3 1599 1105.7 1553.8Z" fill="white"/>
</svg>
