<svg viewBox="0 0 397 313" fill="none" xmlns="http://www.w3.org/2000/svg">
<path d="M64.6 237.9C67 235.5 70.3 234.1 73.8 234.1H391.2C397 234.1 399.9 241.1 395.8 245.2L333.1 307.8C330.7 310.2 327.4 311.6 323.9 311.6H6.5C0.700003 311.6 -2.19999 304.6 1.90001 300.5L64.6 237.9Z" fill="url(#paint0_linear)"/>
<path d="M64.6 6.3C67 3.9 70.3 2.5 73.8 2.5H391.2C397 2.5 399.9 9.5 395.8 13.6L333.1 76.2C330.7 78.6 327.4 80 323.9 80H6.5C0.700003 80 -2.19999 73 1.90001 68.9L64.6 6.3Z" fill="url(#paint1_linear)"/>
<path d="M333.1 120.1C330.7 117.7 327.4 116.3 323.9 116.3H6.5C0.700003 116.3 -2.19999 123.3 1.90001 127.4L64.6 190C67 192.4 70.3 193.8 73.8 193.8H391.2C397 193.8 399.9 186.8 395.8 182.7L333.1 120.1Z" fill="url(#paint2_linear)"/>
<defs>
<linearGradient id="paint0_linear" x1="61.769" y1="56.126" x2="351.684" y2="257.067" gradientUnits="userSpaceOnUse">
<stop stop-color="#9945FF"/>
<stop offset="1" stop-color="#14F195"/>
</linearGradient>
<linearGradient id="paint1_linear" x1="61.769" y1="-5.126" x2="351.684" y2="195.815" gradientUnits="userSpaceOnUse">
<stop stop-color="#9945FF"/>
<stop offset="1" stop-color="#14F195"/>
</linearGradient>
<linearGradient id="paint2_linear" x1="61.769" y1="117.378" x2="351.684" y2="318.319" gradientUnits="userSpaceOnUse">
<stop stop-color="#9945FF"/>
<stop offset="1" stop-color="#14F195"/>
</linearGradient>
</defs>
</svg>
