<svg viewBox="0 0 2000 2000" fill="none" xmlns="http://www.w3.org/2000/svg">
<path d="M1000 2000C1552.28 2000 2000 1552.28 2000 1000C2000 447.715 1552.28 0 1000 0C447.715 0 0 447.715 0 1000C0 1552.28 447.715 2000 1000 2000Z" fill="#2775CA"/>
<path d="M1275 1158.33C1275 1341.67 1136.67 1466.67 966.667 1488.33V1616.67H858.333V1485C716.667 1480 625 1406.67 608.333 1266.67H766.667C780 1341.67 846.667 1378.33 953.333 1378.33C1075 1378.33 1128.33 1318.33 1128.33 1238.33C1128.33 1133.33 1058.33 1098.33 916.667 1048.33C741.667 986.667 625 930 625 780C625 616.667 758.333 516.667 961.667 496.667V383.333H1070V496.667C1185 503.333 1271.67 561.667 1291.67 690H1141.67C1128.33 621.667 1071.67 598.333 978.333 598.333C875 598.333 783.333 651.667 783.333 746.667C783.333 840 850 883.333 1033.33 948.333C1221.67 1013.33 1275 1083.33 1275 1158.33Z" fill="white"/>
</svg>
