<svg width="64" height="64" viewBox="0 0 64 64" fill="none" xmlns="http://www.w3.org/2000/svg">
  <circle cx="32" cy="32" r="32" fill="#2775CA"/>
  <path d="M33.5 16V19.06C38.08 19.56 41.36 21.6 42.6 24.84L38.2 26.68C37.48 24.84 35.84 23.6 33.5 23.44V31.52C37.06 32.28 42 33.6 42 38.64C42 43.16 38.44 45.48 33.5 45.92V49H29.5V45.84C25 45.52 21.84 43.4 20.6 39.88L24.96 38.04C25.76 40.24 27.56 41.6 29.5 41.84V33.48C26.18 32.76 21.6 31.4 21.6 26.52C21.6 22.28 25.12 19.64 29.5 19.16V16H33.5ZM29.5 23.2V30.16C27.54 29.6 26.16 28.52 26.16 26.6C26.16 25.04 27.28 23.76 29.5 23.2ZM33.5 41.72V34.56C35.98 35.24 37.44 36.4 37.44 38.6C37.44 40.28 36.16 41.44 33.5 41.72Z" fill="white"/>
</svg>
